<svg xmlns="http://www.w3.org/2000/svg" viewBox="0 0 64 80" x="0px" y="0px"><path d="M54.546,28H50V26H2v2.05C2,34.639,8.333,40,16.117,40H35.883c7,0,12.807-4.338,13.912-10h4.751v2H62V26H54.546ZM48,28.05C48,33.536,42.564,38,35.883,38H16.117C9.436,38,4,33.536,4,28.05V28H48ZM56.546,28H60v2H56.546Z"/><path d="M10.293,21.293l1.414,1.414,3.333-3.333a3.359,3.359,0,0,0,0-4.748L13.374,12.96a1.36,1.36,0,0,1,0-1.92l3.333-3.333L15.293,6.293,11.96,9.626a3.359,3.359,0,0,0,0,4.748l1.666,1.666a1.36,1.36,0,0,1,0,1.92Z"/><path d="M23.293,21.293l1.414,1.414,3.333-3.333a3.359,3.359,0,0,0,0-4.748L26.374,12.96a1.36,1.36,0,0,1,0-1.92l3.333-3.333L28.293,6.293,24.96,9.626a3.359,3.359,0,0,0,0,4.748l1.666,1.666a1.36,1.36,0,0,1,0,1.92Z"/><path d="M36.293,21.293l1.414,1.414,3.333-3.333a3.359,3.359,0,0,0,0-4.748L39.374,12.96a1.36,1.36,0,0,1,0-1.92l3.333-3.333L41.293,6.293,37.96,9.626a3.359,3.359,0,0,0,0,4.748l1.666,1.666a1.36,1.36,0,0,1,0,1.92Z"/><path d="M59,49V46H45V42H39v2h4v2H28V42H26v4H11V44h4V42H9v4H2V59H59V55a3,3,0,0,0,0-6Zm-2,8H4V48H57Zm2-4V51a1,1,0,0,1,0,2Z"/></svg>