<svg xmlns="http://www.w3.org/2000/svg" xmlns:xlink="http://www.w3.org/1999/xlink" version="1.1" x="0px" y="0px" viewBox="0 0 128 160" style="enable-background:new 0 0 128 128;" xml:space="preserve"><g><path d="M16.249,78.867c0.481,1.548,1.047,3.094,1.682,4.596c0.629,1.486,1.337,2.957,2.106,4.371   c0.764,1.406,1.606,2.793,2.504,4.122c0.89,1.318,1.858,2.613,2.878,3.849c1.014,1.229,2.099,2.423,3.227,3.55   c0.78,0.781,2.048,0.781,2.828,0c0.781-0.781,0.781-2.047,0-2.828c-1.038-1.038-2.037-2.137-2.969-3.268   c-0.939-1.138-1.83-2.329-2.649-3.542c-0.826-1.223-1.602-2.499-2.304-3.793c-0.707-1.3-1.358-2.653-1.937-4.02   c-0.583-1.38-1.104-2.802-1.546-4.226c-0.448-1.441-0.83-2.923-1.133-4.407c-0.307-1.501-0.542-3.038-0.697-4.567   C18.08,67.153,18,65.57,18,63.999c0-1.57,0.08-3.153,0.238-4.706c0.155-1.53,0.39-3.066,0.697-4.566   c0.304-1.483,0.685-2.966,1.133-4.407c0.443-1.425,0.963-2.847,1.546-4.225c0.579-1.367,1.23-2.72,1.937-4.021   c0.703-1.293,1.478-2.569,2.304-3.793c0.821-1.215,1.712-2.406,2.649-3.542c0.931-1.128,1.93-2.228,2.97-3.268   c1.034-1.035,2.133-2.034,3.267-2.97c1.133-0.935,2.325-1.826,3.541-2.648c1.226-0.827,2.501-1.603,3.793-2.304   c1.306-0.709,2.658-1.36,4.021-1.937c1.378-0.583,2.799-1.103,4.225-1.546c1.442-0.449,2.925-0.83,4.407-1.133   c1.504-0.308,3.041-0.542,4.567-0.697c3.104-0.315,6.306-0.315,9.412,0c1.526,0.155,3.063,0.389,4.567,0.697   c1.481,0.303,2.964,0.684,4.407,1.133c1.425,0.443,2.846,0.963,4.225,1.547c1.361,0.575,2.714,1.227,4.021,1.936   c1.292,0.702,2.568,1.478,3.792,2.304c1.216,0.822,2.408,1.713,3.542,2.648c1.134,0.937,2.233,1.936,3.268,2.97   c1.04,1.04,2.039,2.139,2.97,3.268c0.934,1.131,1.825,2.323,2.648,3.542c0.826,1.223,1.602,2.499,2.304,3.793   c0.707,1.3,1.358,2.653,1.937,4.02c0.583,1.378,1.103,2.8,1.546,4.226c0.448,1.441,0.83,2.923,1.133,4.407   c0.307,1.499,0.542,3.035,0.697,4.566c0.157,1.554,0.237,3.137,0.237,4.706s-0.08,3.153-0.237,4.706   c-0.156,1.531-0.39,3.067-0.697,4.567c-0.304,1.483-0.685,2.966-1.133,4.407c-0.443,1.423-0.963,2.845-1.546,4.225   c-0.579,1.367-1.23,2.72-1.937,4.021c-0.703,1.293-1.478,2.569-2.304,3.793c-0.821,1.215-1.712,2.407-2.648,3.542   c-0.933,1.13-1.932,2.23-2.97,3.268c-1.037,1.037-2.137,2.036-3.267,2.969c-1.134,0.936-2.325,1.827-3.542,2.649   c-1.221,0.825-2.498,1.6-3.793,2.304c-1.303,0.707-2.655,1.359-4.021,1.937c-1.374,0.581-2.795,1.102-4.224,1.546   c-1.443,0.448-2.926,0.83-4.407,1.133c-1.5,0.307-3.037,0.542-4.567,0.697c-3.107,0.314-6.305,0.314-9.412,0   c-1.531-0.156-3.067-0.39-4.567-0.697c-1.482-0.303-2.965-0.685-4.407-1.133c-1.43-0.445-2.851-0.965-4.225-1.546   c-1.366-0.578-2.719-1.229-4.021-1.937c-0.97-0.529-2.185-0.168-2.712,0.803c-0.527,0.97-0.168,2.185,0.803,2.712   c1.415,0.769,2.886,1.478,4.371,2.105c1.494,0.632,3.04,1.198,4.595,1.682c1.569,0.488,3.182,0.902,4.793,1.232   c1.63,0.333,3.301,0.589,4.965,0.758C60.579,113.913,62.297,114,64,114s3.422-0.087,5.11-0.258   c1.664-0.169,3.334-0.424,4.965-0.758c1.611-0.33,3.223-0.745,4.793-1.232c1.555-0.484,3.101-1.05,4.595-1.682   c1.484-0.628,2.955-1.336,4.372-2.105c1.408-0.766,2.795-1.608,4.122-2.504c1.322-0.894,2.617-1.862,3.849-2.878   c1.229-1.014,2.423-2.099,3.549-3.226c1.127-1.127,2.213-2.321,3.227-3.55c1.018-1.232,1.986-2.528,2.878-3.849   c0.898-1.329,1.741-2.716,2.504-4.122c0.769-1.415,1.477-2.885,2.106-4.372c0.634-1.501,1.2-3.047,1.681-4.595   c0.488-1.567,0.902-3.18,1.233-4.793c0.333-1.63,0.589-3.301,0.758-4.965c0.171-1.687,0.258-3.406,0.258-5.109   c0-1.703-0.087-3.422-0.258-5.11c-0.169-1.665-0.424-3.335-0.758-4.964c-0.331-1.613-0.745-3.226-1.233-4.793   c-0.482-1.55-1.047-3.096-1.682-4.596c-0.629-1.486-1.337-2.957-2.106-4.371c-0.764-1.406-1.606-2.793-2.504-4.122   c-0.894-1.324-1.862-2.62-2.877-3.849c-1.012-1.226-2.097-2.42-3.227-3.55c-1.123-1.124-2.317-2.209-3.55-3.227   c-1.233-1.017-2.527-1.985-3.849-2.877c-1.331-0.899-2.717-1.742-4.122-2.504c-1.42-0.771-2.892-1.48-4.372-2.105   c-1.499-0.634-3.045-1.2-4.595-1.682c-1.569-0.488-3.182-0.903-4.793-1.232c-1.635-0.334-3.306-0.59-4.965-0.758   c-3.371-0.343-6.849-0.343-10.219,0c-1.66,0.168-3.33,0.423-4.965,0.758c-1.612,0.33-3.225,0.744-4.793,1.232   c-1.55,0.482-3.097,1.048-4.595,1.682c-1.481,0.626-2.952,1.335-4.372,2.106c-1.404,0.762-2.792,1.605-4.123,2.504   c-1.322,0.894-2.617,1.862-3.848,2.878c-1.232,1.017-2.426,2.102-3.55,3.227c-1.13,1.129-2.215,2.324-3.227,3.55   c-1.018,1.233-1.986,2.528-2.878,3.849c-0.898,1.329-1.741,2.716-2.504,4.122c-0.769,1.415-1.477,2.885-2.106,4.372   c-0.634,1.499-1.199,3.045-1.681,4.595c-0.488,1.567-0.902,3.18-1.233,4.793c-0.334,1.631-0.589,3.302-0.757,4.965   c-0.171,1.68-0.258,3.4-0.258,5.104c0,1.706,0.087,3.425,0.258,5.109c0.168,1.663,0.423,3.333,0.757,4.965   C15.346,75.687,15.761,77.3,16.249,78.867z"/><path d="M34.531,52.79c0.234-0.206,0.521-0.334,0.852-0.383l15.812-2.297c0.455-0.066,0.9-0.188,1.325-0.361   c0.421-0.172,0.819-0.395,1.181-0.658c0.366-0.266,0.7-0.575,0.996-0.925c0.296-0.352,0.549-0.738,0.751-1.147l7.071-14.326   c0.148-0.3,0.359-0.533,0.627-0.692c0.504-0.299,1.201-0.299,1.707,0c0.268,0.159,0.479,0.392,0.626,0.691l3.536,7.164   c0.489,0.991,1.689,1.397,2.679,0.908s1.397-1.688,0.908-2.679l-3.536-7.164c-0.49-0.992-1.242-1.809-2.172-2.36   c-1.739-1.032-4.052-1.032-5.789,0c-0.932,0.552-1.683,1.369-2.173,2.361L51.861,45.25c-0.059,0.12-0.133,0.233-0.218,0.333   c-0.086,0.102-0.184,0.192-0.293,0.272c-0.105,0.077-0.221,0.141-0.343,0.191c-0.125,0.051-0.255,0.086-0.388,0.106L34.807,48.45   c-1.094,0.159-2.103,0.621-2.918,1.337c-0.759,0.669-1.328,1.536-1.644,2.508c-0.316,0.973-0.366,2.008-0.144,2.997   c0.238,1.057,0.782,2.024,1.574,2.796L43.117,69.24c0.096,0.094,0.181,0.2,0.251,0.313c0.069,0.112,0.126,0.233,0.167,0.359   c0.041,0.125,0.066,0.257,0.076,0.387c0.01,0.134,0.003,0.269-0.02,0.402L40.89,86.448c-0.188,1.092-0.059,2.194,0.37,3.188   c0.4,0.928,1.05,1.737,1.878,2.339s1.798,0.97,2.805,1.063c1.08,0.1,2.167-0.118,3.147-0.633l14.142-7.435   c0.119-0.063,0.245-0.11,0.375-0.142c0.258-0.063,0.529-0.063,0.787,0c0.129,0.032,0.256,0.08,0.375,0.142l14.142,7.435   c0.825,0.433,1.726,0.657,2.632,0.657c0.171,0,0.342-0.008,0.513-0.024c1.007-0.093,1.978-0.461,2.807-1.063   c0.828-0.603,1.478-1.412,1.876-2.338c0.43-0.995,0.558-2.097,0.371-3.189l-2.701-15.746c-0.022-0.133-0.029-0.267-0.019-0.402   c0.01-0.131,0.036-0.262,0.076-0.386c0.041-0.126,0.098-0.249,0.166-0.359c0.071-0.114,0.156-0.22,0.252-0.314l11.441-11.152   c0.792-0.772,1.336-1.739,1.574-2.796c0.222-0.986,0.172-2.023-0.144-2.996c-0.316-0.974-0.885-1.841-1.645-2.51   c-0.813-0.715-1.822-1.177-2.917-1.336l-15.811-2.297c-1.097-0.164-2.108,0.598-2.267,1.691c-0.159,1.093,0.598,2.108,1.691,2.267   l15.81,2.297c0.332,0.048,0.618,0.177,0.851,0.382c0.221,0.194,0.388,0.451,0.482,0.742c0.095,0.291,0.111,0.596,0.046,0.882   c-0.068,0.304-0.225,0.576-0.464,0.81L82.09,66.376c-0.329,0.32-0.618,0.68-0.862,1.074c-0.237,0.384-0.428,0.796-0.569,1.229   c-0.14,0.432-0.228,0.878-0.26,1.325c-0.034,0.458-0.012,0.919,0.066,1.375l2.701,15.747c0.057,0.33,0.023,0.641-0.101,0.928   c-0.116,0.269-0.308,0.507-0.556,0.687c-0.248,0.18-0.533,0.29-0.826,0.317c-0.309,0.027-0.617-0.035-0.913-0.191l-14.143-7.435   c-0.407-0.214-0.839-0.377-1.284-0.486c-0.881-0.215-1.81-0.215-2.688,0c-0.446,0.109-0.878,0.273-1.286,0.487l-14.142,7.435   c-0.296,0.155-0.604,0.219-0.914,0.191c-0.292-0.027-0.577-0.137-0.824-0.317c-0.248-0.18-0.44-0.417-0.557-0.688   c-0.123-0.285-0.157-0.597-0.1-0.926l2.701-15.747c0.078-0.453,0.1-0.914,0.066-1.374c-0.034-0.452-0.122-0.899-0.262-1.329   c-0.141-0.431-0.332-0.844-0.57-1.229c-0.242-0.39-0.531-0.75-0.859-1.07l-11.44-11.155c-0.239-0.233-0.396-0.506-0.463-0.808   c-0.064-0.288-0.049-0.593,0.046-0.884C34.145,53.241,34.312,52.984,34.531,52.79z"/></g></svg>